<?xml version="1.0" encoding="iso-8859-1"?>
<!-- Uploaded to: SVG Repo, www.svgrepo.com, Generator: SVG Repo Mixer Tools -->
<svg version="1.1" id="Layer_1" xmlns="http://www.w3.org/2000/svg" xmlns:xlink="http://www.w3.org/1999/xlink" 
	 viewBox="0 0 392.598 392.598" xml:space="preserve">
<g>
	<path style="fill:#56ACE0;" d="M306.924,322.78H105.486c-13.188,0-24.048,10.731-24.048,24.048s10.731,24.048,24.048,24.048
		h201.438C303.11,355.038,303.11,338.489,306.924,322.78z"/>
	<path style="fill:#56ACE0;" d="M105.421,21.851c-13.188,0-24.048,10.731-24.048,24.048v261.947
		c7.046-4.331,15.192-6.853,24.048-6.853h0.711V21.851H105.421z"/>
</g>
<rect x="127.983" y="21.851" style="fill:#FFFFFF;" width="183.208" height="279.079"/>
<path style="fill:#194F82;" d="M331.619,376.113c-7.822-19.135-7.628-40.986,0.517-59.992l0,0c0.453-1.164,0.776-2.133,0.84-4.267
	V10.925C332.977,4.913,328.128,0,322.051,0H105.486C80.209,0,59.587,20.558,59.587,45.834v300.929
	c0,25.277,20.558,45.834,45.834,45.834h216.566h0.065c6.012,0,10.925-4.848,10.925-10.925
	C333.171,379.669,332.524,377.794,331.619,376.113z M81.502,346.764c0-13.188,10.731-24.048,24.048-24.048h201.503
	c-3.879,15.774-3.879,32.323,0,48.032H105.486C92.233,370.812,81.502,360.016,81.502,346.764z M81.502,45.899
	c0-13.188,10.731-24.048,24.048-24.048h0.711v279.079h-0.711c-8.792,0-17.002,2.521-24.048,6.853
	C81.502,307.846,81.502,45.899,81.502,45.899z M127.983,21.851h183.208v279.079H127.983V21.851z"/>
<rect x="149.769" y="43.636" style="fill:#FFC10D;" width="139.636" height="235.442"/>
<path style="fill:#194F82;" d="M181.445,119.079h27.281v100.461c0,6.012,4.848,10.925,10.925,10.925
	c6.012,0,10.925-4.848,10.925-10.925V119.079h27.216c6.012,0,10.925-4.848,10.925-10.925c0-6.012-4.848-10.925-10.925-10.925
	h-27.281V62.772c0-6.012-4.848-10.925-10.925-10.925c-6.012,0-10.925,4.848-10.925,10.925v34.392h-27.281
	c-6.012,0-10.925,4.848-10.925,10.925C170.585,114.166,175.433,119.079,181.445,119.079z"/>
</svg>