<?xml version="1.0" encoding="iso-8859-1"?>
<!-- Uploaded to: SVG Repo, www.svgrepo.com, Generator: SVG Repo Mixer Tools -->
<svg version="1.1" id="Layer_1" xmlns="http://www.w3.org/2000/svg" xmlns:xlink="http://www.w3.org/1999/xlink" 
	 viewBox="0 0 512 512" xml:space="preserve">
<polygon style="fill:#E5C9A5;" points="373.827,301.491 323.282,364.067 256.174,274.523 189.067,364.067 138.522,301.491 
	138.172,434.357 373.335,434.357 "/>
<polygon style="fill:#91DDE2;" points="256.174,274.523 308.522,344.372 308.522,15.089 203.478,15.089 203.478,344.838 "/>
<g>
	<rect x="81.704" y="139.283" style="fill:#126B80;" width="121.78" height="105.047"/>
	<rect x="308.516" y="139.283" style="fill:#126B80;" width="121.78" height="105.047"/>
</g>
<rect x="203.484" y="434.356" style="fill:#91DDE2;" width="105.047" height="62.556"/>
<path d="M430.302,124.193H323.611V15.089C323.611,6.757,316.855,0,308.522,0H203.478c-8.333,0-15.089,6.757-15.089,15.089v109.104
	H81.698c-8.333,0-15.089,6.757-15.089,15.089v105.044c0,8.332,6.755,15.089,15.089,15.089h106.691v79.802l-38.13-47.206
	c-4.015-4.969-10.72-6.871-16.747-4.75c-6.025,2.12-10.063,7.805-10.079,14.192l-0.35,132.866
	c-0.011,4.009,1.574,7.857,4.404,10.695c2.831,2.838,6.675,4.433,10.684,4.433h50.218v47.466c0,8.332,6.755,15.089,15.089,15.089
	h105.044c8.333,0,15.089-6.757,15.089-15.089v-47.466h49.726c8.311,0,15.057-6.722,15.089-15.033l0.492-132.866
	c0.024-6.405-3.998-12.127-10.034-14.272c-6.035-2.152-12.766-0.247-16.792,4.735l-38.363,47.493l-0.118-0.157v-79.933h106.691
	c8.333,0,15.089-6.757,15.089-15.089V139.281C445.391,130.948,438.635,124.193,430.302,124.193z M96.787,229.237V154.37h91.603
	v74.867H96.787z M177.33,373.549c0.041,0.05,0.089,0.094,0.13,0.143H153.42l0.078-29.646L177.33,373.549z M293.433,481.823h-74.867
	v-32.377h74.867V481.823z M335.019,373.549l23.561-29.169l-0.278,74.889H308.52H203.477h-50.177l0.041-15.399h84.553
	c8.333,0,15.089-6.757,15.089-15.089s-6.755-15.089-15.089-15.089h-37.237c0.161-0.193,0.333-0.374,0.486-0.576l55.033-73.432
	l55.034,73.432c2.791,3.725,7.146,5.952,11.799,6.037C327.647,379.196,332.095,377.171,335.019,373.549z M256.174,259.435
	c-4.751,0-9.225,2.238-12.074,6.04l-25.534,34.07v-55.221V139.281V30.177h74.867v109.104v105.044v54.755l-25.184-33.604
	C265.399,261.674,260.925,259.435,256.174,259.435z M415.213,229.237h-91.603V154.37h91.603V229.237z"/>
<path d="M283.159,403.869c-0.981,0-1.977-0.106-2.942-0.302c-0.966-0.196-1.916-0.483-2.822-0.86
	c-0.92-0.377-1.796-0.845-2.61-1.388c-0.83-0.542-1.599-1.175-2.293-1.871c-0.694-0.694-1.328-1.464-1.871-2.293
	c-0.543-0.815-1.011-1.69-1.388-2.61c-0.377-0.905-0.679-1.854-0.86-2.82c-0.196-0.967-0.302-1.963-0.302-2.942
	c0-0.981,0.106-1.978,0.302-2.942c0.181-0.966,0.483-1.916,0.86-2.837c0.377-0.907,0.845-1.78,1.388-2.595
	c0.543-0.831,1.177-1.601,1.871-2.295c0.694-0.694,1.464-1.328,2.293-1.871c0.815-0.558,1.69-1.011,2.595-1.388
	c0.92-0.377,1.871-0.679,2.822-0.859c1.946-0.394,3.953-0.394,5.9,0c0.966,0.18,1.916,0.481,2.822,0.859
	c0.92,0.377,1.796,0.83,2.61,1.388c0.83,0.543,1.599,1.177,2.293,1.871c2.806,2.806,4.421,6.699,4.421,10.668
	c0,0.979-0.091,1.977-0.287,2.942c-0.196,0.966-0.498,1.916-0.875,2.82c-0.377,0.92-0.845,1.796-1.388,2.61
	c-0.543,0.83-1.177,1.599-1.871,2.293c-0.694,0.696-1.464,1.329-2.293,1.871c-0.815,0.543-1.69,1.011-2.61,1.388
	c-0.905,0.377-1.856,0.664-2.822,0.86C285.136,403.763,284.139,403.869,283.159,403.869z"/>
</svg>